<?xml version="1.0" encoding="UTF-8"?>
<!-- Retech Solutions composed lockup. AUTO-GENERATED by scripts/generate-logo-full.js.
     Icon paths from public/images/logo.svg; wordmark paths converted from
     General Sans 700 woff2 via fontkit. No <text> elements — renders
     identically across browsers/OS without web fonts.

     Theme adaptation via CSS custom properties on the parent element:
       .navbar-link { color: var(--foreground); --lockup-accent: var(--brand); }
       .footer-link { color: white;              --lockup-accent: var(--brand-light); }
-->
<svg xmlns="http://www.w3.org/2000/svg" viewBox="0 0 349 140" width="349" height="140" role="img" aria-label="Retech Solutions">
  <g transform="translate(8.00 5.00) scale(0.180033)">
    <path fill="#30AB47" d="M288.226 166C381.006 166 398 212.342 398 254c0 31.159-11 43.5-11 43.5s-5 10-9.5 12l-3.5 4-3.5 4-2 1.5-3.5 3-3 1.5-4.5 3-8.5 5-13 5-15.5 4-16 1.5H266l121 127-51 35.354-144.5-151.051-60-63.803H245c-1.39.13 1.398-.097 0 0h13c80.726 2.873 78-16 81-35-3-19-1.037-41-94-35.585H74V176.5l42.5-10.5z" data-color="1"/>
    <path fill="#30AB47" d="M311.528 574.341c-12.495 9.477-44.793 18.904-73.062 2.41L56.638 469.628c-29.242-17.061-35.634-41.018-34.186-70.492 0 0 46.47-3.453 53.54-15.572-.377.646.05 24.824.552 26.334.01 5.091 6.968 13.983 11.502 15.998l50.611 28.834c29.25 17.065 130.257 78.093 137.771 82.099 16.038 13.009 35.1 37.512 35.1 37.512" data-color="1"/>
    <path fill="#30AB47" d="M61.268 471.448c-14.5-5.974-38.986-29.049-39.081-61.778l.28-211.037c-.1-33.856 17.39-50.903 43.539-64.582 0 0 27.295 37.859 41.325 37.818-.748.002-22.232 12.479-23.28 13.677-4.385 2.586-8.528 13.09-7.97 18.02l.77 58.243c.1 33.865-1.366 151.867-1.015 160.375-3.094 20.417-14.568 49.264-14.568 49.264" data-color="1"/>
    <path fill="#30AB47" d="M23.48 203.354c-2.095-15.541 5.607-48.293 33.883-64.775L240.139 33.082c29.25-17.049 51.927-11.307 76.867 4.468 0 0-18.249 43.444-11.184 55.566-.377-.646-21.939-12.987-23.5-13.294-4.436-2.5-15.602-.822-19.589 2.132l-50.018 29.849c-29.258 17.053-132.114 74.909-139.301 79.476-19.22 7.552-49.933 12.075-49.933 12.075" data-color="1"/>
    <path fill="#30AB47" d="M237.534 35.327c12.57-9.377 44.942-18.543 73.078-1.823l180.961 108.581c29.105 17.295 35.303 41.303 33.618 70.765 0 0-46.517 3.639-53.685 15.701.382-.643.172-25.383-.318-26.898.032-5.091-6.856-14.039-11.373-16.09l-50.377-29.239c-29.113-17.301-129.626-79.138-137.107-83.205-15.933-13.137-34.797-37.792-34.797-37.792" data-color="1"/>
    <path fill="#30AB47" d="M485.54 144.117c14.222 5.756 39.781 28.172 39.966 59.933l-1.195 204.711c.191 32.854-17.225 49.44-42.805 62.789 0 0-26.518-36.654-40.264-36.574.733-.004 21.746-12.174 22.77-13.339 4.289-2.523 8.319-12.728 7.757-17.511l-.916-56.52c-.191-32.864.918-147.384.55-155.64 2.975-19.823 14.137-47.849 14.137-47.849" data-color="1"/>
    <path fill="#30AB47" d="M523.3 400.914c2.433 15.493-4.556 48.404-32.468 65.495L310.389 575.85c-28.872 17.679-53 11.966-78.276-3.264 0 0 18.632-43.365 11.306-55.33.39.638 22.215 12.508 23.783 12.781 4.489 2.402 15.616.482 19.538-2.557l49.358-30.928c28.881-17.684 130.457-77.76 137.543-82.482 19.052-7.967 49.659-13.156 49.659-13.156" data-color="1"/>
  </g>
  <path d="M12.43 82.00L3.36 82.00L3.36 47.54L17.47 47.54Q24.48 47.54 28.30 50.54Q32.11 53.54 32.11 59.06Q32.11 62.37 30.22 64.98Q28.32 67.60 24.82 69.09L33.26 82.00L22.46 82.00L15.41 70.53L12.43 70.53ZM12.43 55.02L12.43 63.04L17.09 63.04Q22.99 63.04 22.99 59.06Q22.99 55.02 17.09 55.02ZM46.42 82.43Q40.46 82.43 36.79 78.74Q33.12 75.04 33.12 69.04Q33.12 63.23 36.86 59.46Q40.61 55.70 46.37 55.70Q52.75 55.70 56.50 60.23Q60.24 64.77 59.14 71.15L41.62 71.15Q42.24 76.05 46.22 76.05Q49.68 76.05 50.78 73.22L58.99 73.22Q57.79 77.63 54.53 80.03Q51.26 82.43 46.42 82.43ZM46.18 61.74Q42.58 61.74 41.71 66.02L50.35 66.02Q50.26 64.05 49.13 62.90Q48.00 61.74 46.18 61.74ZM78.53 73.94L78.53 81.09Q76.03 82.48 72.67 82.48Q68.30 82.48 65.88 80.01Q63.46 77.54 63.46 73.12L63.46 63.33L58.66 63.33L58.66 56.18L63.46 56.18L63.46 48.59L71.66 48.59L71.66 56.18L78.72 56.18L78.72 63.33L71.66 63.33L71.66 71.20Q71.66 74.85 74.98 74.85Q77.09 74.85 78.53 73.94ZM92.11 82.43Q86.16 82.43 82.49 78.74Q78.82 75.04 78.82 69.04Q78.82 63.23 82.56 59.46Q86.30 55.70 92.06 55.70Q98.45 55.70 102.19 60.23Q105.94 64.77 104.83 71.15L87.31 71.15Q87.94 76.05 91.92 76.05Q95.38 76.05 96.48 73.22L104.69 73.22Q103.49 77.63 100.22 80.03Q96.96 82.43 92.11 82.43ZM91.87 61.74Q88.27 61.74 87.41 66.02L96.05 66.02Q95.95 64.05 94.82 62.90Q93.70 61.74 91.87 61.74ZM118.27 82.48Q112.51 82.48 108.89 78.74Q105.26 74.99 105.26 69.09Q105.26 63.33 108.98 59.51Q112.70 55.70 118.27 55.70Q123.60 55.70 127.22 59.01Q130.85 62.32 131.38 67.70L122.64 67.70Q122.54 65.58 121.37 64.34Q120.19 63.09 118.32 63.09Q116.16 63.09 114.96 64.67Q113.76 66.26 113.76 69.09Q113.76 72.02 114.94 73.58Q116.11 75.14 118.32 75.14Q120.24 75.14 121.37 73.91Q122.50 72.69 122.64 70.48L131.38 70.48Q130.85 76.00 127.32 79.24Q123.79 82.48 118.27 82.48ZM141.41 68.42L141.41 82.00L133.20 82.00L133.20 47.54L141.41 47.54L141.41 58.96Q142.94 57.33 144.53 56.51Q146.11 55.70 148.42 55.70Q152.35 55.70 154.73 58.24Q157.10 60.78 157.10 65.39L157.10 82.00L148.90 82.00L148.90 68.13Q148.90 63.09 145.25 63.09Q143.57 63.09 142.49 64.38Q141.41 65.68 141.41 68.42Z" fill="var(--lockup-text, currentColor)" transform="translate(116.66 0)"/>
  <path d="M39.07 70.72Q39.07 76.05 35.11 79.26Q31.15 82.48 24.43 82.48Q17.71 82.48 13.63 79.17Q9.55 75.86 9.07 70.10L18.24 70.10Q18.34 72.59 19.90 74.01Q21.46 75.42 24.24 75.42Q26.64 75.42 28.03 74.54Q29.42 73.65 29.42 72.06Q29.42 70.96 28.44 70.17Q27.46 69.38 25.92 69.09L19.63 67.89Q15.36 67.07 12.91 64.58Q10.46 62.08 10.46 58.05Q10.46 53.25 14.26 50.18Q18.05 47.10 23.86 47.10Q30.05 47.10 34.08 50.42Q38.11 53.73 38.50 59.25L29.33 59.25Q29.14 56.90 27.67 55.50Q26.21 54.11 23.95 54.11Q21.98 54.11 20.81 55.05Q19.63 55.98 19.63 57.42Q19.63 59.58 22.99 60.21L29.66 61.50Q39.07 63.33 39.07 70.72ZM62.59 78.57Q62.59 78.57 60.65 80.52Q58.70 82.48 52.99 82.48Q47.28 82.48 43.39 78.57Q39.50 74.66 39.50 69.09Q39.50 63.52 43.39 59.61Q47.28 55.70 52.99 55.70Q58.70 55.70 62.59 59.61Q66.48 63.52 66.48 69.09Q66.48 74.66 62.59 78.57ZM49.49 73.55Q49.49 73.55 50.21 74.34Q50.93 75.14 52.99 75.14Q55.06 75.14 56.50 73.55Q57.94 71.97 57.94 69.09Q57.94 66.21 56.50 64.65Q55.06 63.09 52.99 63.09Q50.93 63.09 49.49 64.65Q48.05 66.21 48.05 69.09Q48.05 71.97 49.49 73.55ZM76.61 82.00L68.30 82.00L68.30 47.54L76.61 47.54ZM95.38 70.91L95.38 56.18L103.58 56.18L103.58 82.00L96.05 82.00L96.05 79.22Q94.94 80.70 93.00 81.59Q91.06 82.48 88.85 82.48Q84.82 82.48 82.32 79.91Q79.82 77.34 79.82 72.45L79.82 56.18L88.03 56.18L88.03 70.91Q88.03 75.14 91.73 75.14Q93.12 75.14 94.25 74.03Q95.38 72.93 95.38 70.91ZM124.37 73.94L124.37 81.09Q121.87 82.48 118.51 82.48Q114.14 82.48 111.72 80.01Q109.30 77.54 109.30 73.12L109.30 63.33L104.50 63.33L104.50 56.18L109.30 56.18L109.30 48.59L117.50 48.59L117.50 56.18L124.56 56.18L124.56 63.33L117.50 63.33L117.50 71.20Q117.50 74.85 120.82 74.85Q122.93 74.85 124.37 73.94ZM135.60 50.18Q135.60 52.19 134.11 53.51Q132.62 54.83 130.32 54.83Q128.02 54.83 126.53 53.51Q125.04 52.19 125.04 50.18Q125.04 48.11 126.50 46.79Q127.97 45.47 130.32 45.47Q132.67 45.47 134.14 46.79Q135.60 48.11 135.60 50.18ZM134.50 82.00L126.29 82.00L126.29 56.18L134.50 56.18ZM159.41 78.57Q159.41 78.57 157.46 80.52Q155.52 82.48 149.81 82.48Q144.10 82.48 140.21 78.57Q136.32 74.66 136.32 69.09Q136.32 63.52 140.21 59.61Q144.10 55.70 149.81 55.70Q155.52 55.70 159.41 59.61Q163.30 63.52 163.30 69.09Q163.30 74.66 159.41 78.57ZM146.30 73.55Q146.30 73.55 147.02 74.34Q147.74 75.14 149.81 75.14Q151.87 75.14 153.31 73.55Q154.75 71.97 154.75 69.09Q154.75 66.21 153.31 64.65Q151.87 63.09 149.81 63.09Q147.74 63.09 146.30 64.65Q144.86 66.21 144.86 69.09Q144.86 71.97 146.30 73.55ZM173.33 68.42L173.33 82.00L165.12 82.00L165.12 56.18L172.66 56.18L172.66 59.30Q175.87 55.70 180.34 55.70Q184.27 55.70 186.65 58.24Q189.02 60.78 189.02 65.39L189.02 82.00L180.82 82.00L180.82 68.13Q180.82 63.09 177.17 63.09Q175.49 63.09 174.41 64.38Q173.33 65.68 173.33 68.42ZM215.14 73.22Q215.14 77.54 212.02 80.01Q208.90 82.48 203.14 82.48Q197.42 82.48 194.21 79.96Q190.99 77.44 190.61 72.88L198.48 72.88Q198.48 74.51 199.80 75.47Q201.12 76.43 203.28 76.43Q206.83 76.43 206.83 74.66Q206.83 73.84 206.21 73.38Q205.58 72.93 204.19 72.69L199.10 71.78Q195.65 71.15 193.68 69.21Q191.71 67.26 191.71 64.19Q191.71 60.40 194.69 58.05Q197.66 55.70 202.70 55.70Q207.79 55.70 211.06 58.22Q214.32 60.74 214.66 65.06L206.78 65.06Q206.64 63.52 205.54 62.63Q204.43 61.74 202.75 61.74Q199.58 61.74 199.58 63.42Q199.58 64.19 200.14 64.55Q200.69 64.91 202.03 65.15L207.50 66.16Q215.14 67.55 215.14 73.22Z" fill="var(--lockup-accent, var(--brand))" transform="translate(116.66 0)"/>
</svg>
