<svg width="24" height="24" xmlns="http://www.w3.org/2000/svg" viewBox="0 0 24 24" fill="#00A1E0"><path d="M12 0C5.373 0 0 5.373 0 12s5.373 12 12 12 12-5.373 12-12S18.627 0 12 0zm5.768 7.014h-2.182c-.198 0-.357.16-.357.357v9.258c0 .198.16.357.357.357h2.182c.198 0 .357-.16.357-.357V7.371a.356.356 0 00-.357-.357zm-4.562 0h-2.182c-.198 0-.357.16-.357.357v9.258c0 .198.16.357.357.357h2.182c.198 0 .357-.16.357-.357V7.371a.356.356 0 00-.357-.357zm-4.562 0H6.462c-.198 0-.357.16-.357.357v9.258c0 .198.16.357.357.357h2.182c.198 0 .357-.16.357-.357V7.371a.356.356 0 00-.357-.357z"/></svg>
