<?xml version="1.0" encoding="UTF-8"?>
<svg xmlns="http://www.w3.org/2000/svg" viewBox="0 0 611 611" width="611" height="611">
  <g transform="translate(31.5,0)">
    <path fill="#30AB47" d="M288.226 166C381.006 166 398 212.342 398 254c0 31.159-11 43.5-11 43.5s-5 10-9.5 12l-3.5 4-3.5 4-2 1.5-3.5 3-3 1.5-4.5 3-8.5 5-13 5-15.5 4-16 1.5H266l121 127-51 35.354-144.5-151.051-60-63.803H245c-1.39.13 1.398-.097 0 0h13c80.726 2.873 78-16 81-35-3-19-1.037-41-94-35.585H74V176.5l42.5-10.5z"/>
    <path fill="#30AB47" d="M311.528 574.341c-12.495 9.477-44.793 18.904-73.062 2.41L56.638 469.628c-29.242-17.061-35.634-41.018-34.186-70.492 0 0 46.47-3.453 53.54-15.572-.377.646.05 24.824.552 26.334.01 5.091 6.968 13.983 11.502 15.998l50.611 28.834c29.25 17.065 130.257 78.093 137.771 82.099 16.038 13.009 35.1 37.512 35.1 37.512"/>
    <path fill="#30AB47" d="M61.268 471.448c-14.5-5.974-38.986-29.049-39.081-61.778l.28-211.037c-.1-33.856 17.39-50.903 43.539-64.582 0 0 27.295 37.859 41.325 37.818-.748.002-22.232 12.479-23.28 13.677-4.385 2.586-8.528 13.09-7.97 18.02l.77 58.243c.1 33.865-1.366 151.867-1.015 160.375-3.094 20.417-14.568 49.264-14.568 49.264"/>
    <path fill="#30AB47" d="M23.48 203.354c-2.095-15.541 5.607-48.293 33.883-64.775L240.139 33.082c29.25-17.049 51.927-11.307 76.867 4.468 0 0-18.249 43.444-11.184 55.566-.377-.646-21.939-12.987-23.5-13.294-4.436-2.5-15.602-.822-19.589 2.132l-50.018 29.849c-29.258 17.053-132.114 74.909-139.301 79.476-19.22 7.552-49.933 12.075-49.933 12.075"/>
    <path fill="#30AB47" d="M237.534 35.327c12.57-9.377 44.942-18.543 73.078-1.823l180.961 108.581c29.105 17.295 35.303 41.303 33.618 70.765 0 0-46.517 3.639-53.685 15.701.382-.643.172-25.383-.318-26.898.032-5.091-6.856-14.039-11.373-16.09l-50.377-29.239c-29.113-17.301-129.626-79.138-137.107-83.205-15.933-13.137-34.797-37.792-34.797-37.792"/>
    <path fill="#30AB47" d="M485.54 144.117c14.222 5.756 39.781 28.172 39.966 59.933l-1.195 204.711c.191 32.854-17.225 49.44-42.805 62.789 0 0-26.518-36.654-40.264-36.574.733-.004 21.746-12.174 22.77-13.339 4.289-2.523 8.319-12.728 7.757-17.511l-.916-56.52c-.191-32.864.918-147.384.55-155.64 2.975-19.823 14.137-47.849 14.137-47.849"/>
    <path fill="#30AB47" d="M523.3 400.914c2.433 15.493-4.556 48.404-32.468 65.495L310.389 575.85c-28.872 17.679-53 11.966-78.276-3.264 0 0 18.632-43.365 11.306-55.33.39.638 22.215 12.508 23.783 12.781 4.489 2.402 15.616.482 19.538-2.557l49.358-30.928c28.881-17.684 130.457-77.76 137.543-82.482 19.052-7.967 49.659-13.156 49.659-13.156"/>
  </g>
</svg>
